<svg id="Ebene_1" data-name="Ebene 1" xmlns="http://www.w3.org/2000/svg" viewBox="0 0 343.91 557.48"><defs><style>.cls-1,.cls-2{fill:none;stroke:#fff;stroke-miterlimit:10;}.cls-1{stroke-width:10.09px;}.cls-2{stroke-width:12.34px;}</style></defs><path class="cls-1" d="M551.67,403.75c-.47,2.23,3.57-17.08-1.43,6.72q-.74,3.38-1.51,6.76c-.51,2.27-1,4.53-1.57,6.81s-1.09,4.56-1.66,6.85-1.14,4.59-1.73,6.9-1.2,4.61-1.82,6.93-1.25,4.64-1.89,7-1.31,4.66-2,7-1.37,4.68-2.07,7c-.17.58-.35,1.15-.52,1.73s-.35,1.15-.53,1.73-.35,1.16-.53,1.73-.35,1.16-.53,1.74-.37,1.16-.55,1.75-.36,1.16-.55,1.74-4.58,12.68-4.77,13.27,3.56-9.14,3.37-8.56" transform="translate(-228.05 -21.26)"/><path class="cls-1" d="M492.66,462c-.22.7,7.78-29.1-.63,1.62-.22.7-.44,1.4-.67,2.1l-.67,2.11L490,470c-.23.71-.46,1.41-.7,2.12s-.47,1.42-.7,2.12l-.72,2.13-.72,2.14c-.25.71-.49,1.42-.74,2.14l-.75,2.14-.75,2.15-.77,2.16-.77,2.16c-.26.72-.53,1.44-.79,2.17s-.53,1.44-.8,2.17-.53,1.45-.81,2.17l-.81,2.18c-.28.73-.55,1.46-.83,2.18l-.84,2.19-.85,2.19c-.29.74-.57,1.47-.86,2.2l-.87,2.2-.89,2.21c-.29.73-.59,1.47-.89,2.2l-.9,2.22c-.31.73-.61,1.47-.92,2.21s-.61,1.48-.92,2.22l-.94,2.22c-.32.75-.63,1.49-.95,2.23l-1,2.23-1,2.23-1,2.24c-.33.74-.66,1.49-1,2.24s-.67,1.49-1,2.24l-1,2.24c-.34.75-.68,1.5-1,2.25s-.69,1.5-1,2.25l-1.05,2.25-1.07,2.25c-.35.76-.71,1.51-1.07,2.26l-1.09,2.26c-.37.75-.73,1.51-1.1,2.26L455,555.84c-.38.76-.3,1.67-1.58,7.2" transform="translate(-228.05 -21.26)"/><path class="cls-1" d="M524.48,295.53c-1.44,1.2-1,4.28-1.11,6s-.29,3.53-.44,5.31-.33,3.59-.5,5.4-.35,3.63-.54,5.46-.38,3.69-.58,5.54-.42,3.74-.64,5.62-.45,3.78-.68,5.68-.49,3.83-.74,5.75-.52,3.87-.8,5.82-.55,3.91-.84,5.88-.6,4-.91,6-.63,4-1,6-.68,4-1,6.06-.71,4.07-1.08,6.12-.76,4.11-1.15,6.18-.8,4.14-1.22,6.22-.84,4.18-1.28,6.28c-10.22,42.33-1.16,3.41-1.62,5.52" transform="translate(-228.05 -21.26)"/><path class="cls-1" d="M469.07,87c.83.47-10.37-6.67-9.55-6.19s1.63,1,2.44,1.47,1.61,1,2.41,1.52,1.58,1,2.36,1.58,1.57,1.07,2.34,1.62,1.54,1.11,2.29,1.68,1.52,1.14,2.26,1.73,1.49,1.17,2.22,1.77S477.31,93.34,478,94s1.43,1.24,2.14,1.87,1.4,1.27,2.1,1.92l2.06,2c.67.66,1.35,1.33,2,2s1.32,1.37,2,2.06,1.3,1.4,1.93,2.1,1.26,1.43,1.88,2.15,1.24,1.45,1.84,2.19,1.2,1.48,1.79,2.23,1.17,1.51,1.74,2.27,1.14,1.54,1.7,2.31,1.1,1.57,1.64,2.36,1.07,1.58,1.6,2.39,1,1.61,1.54,2.43,1,1.64,1.49,2.47,1,1.66,1.44,2.5.93,1.69,1.39,2.54.89,1.71,1.33,2.58.86,1.73,1.27,2.61.82,1.75,1.22,2.64.79,1.78,1.16,2.68.75,1.8,1.11,2.71.71,1.82,1,2.74.66,1.84,1,2.77.63,1.87.93,2.8.59,1.89.86,2.84.55,1.9.81,2.86.5,1.92.74,2.88.46,1.94.68,2.92.41,2,.61,2.94.37,2,.55,3,.33,2,.48,3,.28,2,.41,3c0,.2.06.44.09.7s.07.55.1.86.08.65.12,1,.09.75.13,1.17.09.85.14,1.31.1,1,.15,1.47.11,1,.16,1.61.11,1.14.17,1.75.11,1.24.17,1.9.11,1.33.17,2" transform="translate(-228.05 -21.26)"/><path class="cls-1" d="M275.62,148.82c-5.35,17.9-.38,1,0,0s1.86-4.87,2.26-5.83.81-1.92,1.23-2.86.86-1.9,1.3-2.84.9-1.87,1.37-2.79.94-1.85,1.42-2.76,1-1.82,1.5-2.72,1-1.8,1.55-2.69,1.07-1.77,1.62-2.64,1.11-1.75,1.68-2.61,1.15-1.71,1.74-2.56,1.18-1.68,1.79-2.52,1.23-1.65,1.86-2.47,1.27-1.63,1.91-2.43,1.31-1.6,2-2.38,1.34-1.57,2-2.34,1.38-1.53,2.08-2.28,1.41-1.5,2.13-2.24,1.45-1.46,2.19-2.18,1.49-1.43,2.24-2.14l2.29-2.08c.77-.68,1.56-1.35,2.34-2s1.59-1.32,2.4-2,1.61-1.28,2.43-1.91,1.66-1.25,2.49-1.86,1.68-1.2,2.54-1.79,1.71-1.17,2.58-1.74,1.74-1.12,2.62-1.67,1.78-1.08,2.67-1.61,1.81-1,2.72-1.55,1.83-1,2.75-1.48,1.86-1,2.8-1.42,1.89-.91,2.84-1.35,1.91-.86,2.88-1.28,1.94-.82,2.91-1.21,2-.77,3-1.14,2-.73,3-1.07,2-.68,3-1,2-.62,3.07-.92,2.06-.58,3.1-.85,2.08-.52,3.13-.77,2.1-.47,3.16-.69,2.13-.43,3.2-.62,2.15-.37,3.23-.53,2.17-.32,3.26-.46l.24,0,.23,0,.24,0,.24,0,.23,0,.24,0,.24,0,.24,0,.24,0,.24,0,.25,0,.24,0,.24,0,.25,0,.24,0,.25,0,.24,0,.25,0,.24,0,.25,0,.25,0,.25,0,.24,0,.25,0,.25,0,.25,0,.25,0,.25,0,.25,0,.26,0,.25,0h.25l.25,0,.26,0,.25,0h.25l.26,0h.25l.26,0H390l.25,0h5.66c1,0,2,0,3,0,5.76.46,42.85,6.34,2.42.29" transform="translate(-228.05 -21.26)"/><path class="cls-1" d="M267.55,290.89c.92-1.49,1.61-7.59,1.73-9.22s.24-3.23.35-4.82.2-3.15.29-4.69.16-3.07.23-4.57.14-3,.19-4.44.1-2.89.14-4.3.07-2.79.1-4.16,0-2.7.06-4,0-2.6,0-3.86,0-2.49,0-3.7,0-2.39,0-3.54,0-2.28-.07-3.38-.05-2.17-.09-3.2-.07-2.06-.1-3-.08-1.93-.13-2.85-.08-1.81-.13-2.66-.1-1.69-.14-2.48-.1-1.56-.15-2.28-.1-1.43-.15-2.09-.1-1.29-.15-1.88-.1-1.15-.14-1.67-.09-1-.13-1.46-.09-.87-.13-1.24-.07-.72-.1-1-.06-.57-.09-.8-.05-.41-.06-.56c-.14-1.1-.26-2.21-.36-3.31s-.2-2.21-.28-3.3-.14-2.2-.19-3.3-.09-2.19-.11-3.28c0-18,0-2.18,0-3.26" transform="translate(-228.05 -21.26)"/><path class="cls-1" d="M237.72,415.58c.94-2.12-.89,2.12,0,0s1.76-4.23,2.6-6.34,2.47-6.33,3.27-8.43" transform="translate(-228.05 -21.26)"/><path class="cls-1" d="M436.06,493.14c-.32.81,3.55-10.65-.61,1.72-.32.81-.65,1.62-1,2.43s-.67,1.63-1,2.44l-1,2.44c-.34.82-.68,1.63-1,2.45l-1,2.45c-.35.82-.71,1.63-1.06,2.45s-.71,1.64-1.08,2.46l-1.08,2.46-1.11,2.47c-.37.82-.74,1.65-1.12,2.47s-.75,1.65-1.13,2.48-.76,1.65-1.15,2.47-.77,1.66-1.16,2.48l-1.18,2.49-1.2,2.48c-.4.83-.8,1.66-1.21,2.49l-1.23,2.49c-.41.83-.82,1.66-1.24,2.49l-1.26,2.5c-.42.83-.85,1.66-1.28,2.49s-.85,1.67-1.29,2.5-.87,1.67-1.31,2.5-.88,1.67-1.32,2.51l-1.34,2.5c-.45.83-.9,1.67-1.36,2.5s-.91,1.67-1.37,2.51l-1.4,2.5c-.46.84-.93,1.68-1.4,2.51l-1.43,2.51-1.44,2.51-1.46,2.5" transform="translate(-228.05 -21.26)"/><path class="cls-1" d="M467.23,390.74c-.44,2,5.13-25.85-1.35,6.11q-.69,3.06-1.41,6.15c-.49,2.06-1,4.12-1.49,6.19s-1,4.14-1.56,6.22-1.07,4.17-1.63,6.26-1.12,4.19-1.71,6.29-1.17,4.21-1.78,6.33-1.23,4.23-1.86,6.35l-.69,2.27c-.23.76-.46,1.52-.7,2.29s-.47,1.52-.71,2.29c-10,28.76-.48,1.53-.72,2.3" transform="translate(-228.05 -21.26)"/><path class="cls-1" d="M483,256.23c0,1.41-.06.26-.1,1.7s-.07,2.89-.12,4.36-.1,3-.15,4.46-.12,3-.19,4.55-.14,3.08-.21,4.65-.17,3.14-.26,4.73-.18,3.2-.29,4.82-.21,3.26-.32,4.9-.24,3.32-.37,5-.26,3.37-.41,5.07-.29,3.42-.45,5.15-.32,3.47-.49,5.22-.36,3.52-.54,5.3-.39,3.57-.59,5.37-.42,3.61-.64,5.44-.45,3.66-.68,5.5-.49,3.71-.74,5.57c-4.72,34.53-.52,3.75-.8,5.64" transform="translate(-228.05 -21.26)"/><path class="cls-1" d="M464.76,142.39c.4.5-1.51-2-1.13-1.54s.76,1,1.13,1.54.74,1,1.1,1.56.71,1.06,1.06,1.59.69,1.08,1,1.62.67,1.09,1,1.64l1,1.67c.31.56.62,1.12.92,1.69s.6,1.14.89,1.71.57,1.16.85,1.74l.81,1.76c.26.59.52,1.18.77,1.78s.5,1.2.74,1.8.47,1.22.7,1.83l.66,1.84c.21.62.41,1.24.61,1.87s.4,1.25.58,1.88.36,1.27.54,1.9.33,1.28.49,1.92.31,1.29.45,1.94.28,1.3.41,2,.25,1.31.37,2,.22,1.33.32,2,.19,1.34.27,2c0,.08,0,.18,0,.31s0,.3.06.48,0,.4.07.64.06.51.09.8.06.61.1,1,.07.71.11,1.11.08.81.13,1.26.08.91.13,1.41.09,1,.14,1.56" transform="translate(-228.05 -21.26)"/><path class="cls-1" d="M360.51,114.44c.64-.3-23.88,14.51,1.92-.86l1.94-.81,2-.76,2-.71c.67-.23,1.34-.45,2-.66s1.35-.42,2-.62l2.06-.56,2.09-.52,2.1-.46,2.13-.41c.72-.13,1.43-.25,2.15-.36s1.45-.21,2.17-.3l.17,0,.16,0,.17,0,.16,0,.17,0,.16,0,.17,0,.17,0,.16,0,.17,0,.17,0h.16l.17,0,.17,0,.17,0,.17,0h.16l.17,0h.17l.17,0,.17,0h.34l.17,0h.34l.17,0h.68l.17,0h5.44l2,0,2,.07c.66,0,1.32.07,2,.12l2,.16,2,.21c.65.08,1.3.16,1.94.26l1.93.29c.64.11,1.28.22,1.92.35s1.26.24,1.9.38l1.88.43,1.87.47c.63.16,1.24.33,1.86.51s1.23.36,1.84.56l1.82.59,1.81.64,1.79.67q.88.34,1.77.72c.58.24,1.17.49,1.75.75l1.73.79,1.71.83,1.69.87c.56.3,1.12.6,1.67.91s1.1.62,1.65.94,1.09.64,1.63,1l1.6,1c.53.34,1.06.69,1.58,1s1,.71,1.55,1.08c4.44,3,1,.74,1.53,1.11" transform="translate(-228.05 -21.26)"/><path class="cls-1" d="M313.49,250c.14-1.33,0,1.26,0,0s-.41-15.12-.44-16.33-.06-2.38-.1-3.53-.08-2.25-.12-3.33-.09-2.12-.14-3.13-.1-2-.15-2.93-.11-1.85-.16-2.73-.11-1.71-.17-2.51-.11-1.56-.17-2.29-.11-1.42-.16-2.07-.11-1.26-.16-1.84-.1-1.11-.15-1.61-.1-.95-.14-1.36-.08-.79-.12-1.13-.07-.62-.1-.87,0-.45-.07-.62c-.09-.74-.17-1.47-.24-2.21s-.13-1.47-.19-2.2-.09-1.47-.12-2.2-.06-1.46-.08-2.19,0-1.45,0-2.18,0-1.44,0-2.17l.09-2.16c0-.71.09-1.43.15-2.14s.12-1.43.19-2.14.16-1.42.25-2.12.19-1.41.3-2.11.22-1.4.35-2.1.25-1.39.39-2.08.29-1.37.45-2.06.33-1.37.5-2,.35-1.35.54-2,.39-1.34.6-2,.41-1.33.64-2,.44-1.32.68-2,.48-1.3.73-1.95.51-1.29.78-1.93.54-1.28.82-1.91.57-1.26.87-1.89.6-1.25.91-1.86.62-1.23,1-1.84.65-1.22,1-1.82.69-1.19,1-1.79.71-1.18,1.08-1.76c14.9-19.55.73-1.16,1.11-1.73" transform="translate(-228.05 -21.26)"/><path class="cls-1" d="M306.13,330.34q.53-3.13,1-6.21T308,318q.44-3,.82-6t.74-5.9q.35-2.92.65-5.79t.58-5.68q.27-2.82.5-5.56c.16-1.83.3-3.64.44-5.43s.25-3.56.37-5.31c.82-14.8-.1,1.7,0,0" transform="translate(-228.05 -21.26)"/><path class="cls-1" d="M274.65,438.24c1-2.34-2.07,4.82,3-7,1-2.33,1.9-4.67,2.82-7s1.8-4.66,2.67-7,1.71-4.64,2.53-7,1.62-7.16,2.39-9.46" transform="translate(-228.05 -21.26)"/><path class="cls-1" d="M251.78,478.44s4.31-2.8,5.6-5.13,2.56-4.66,3.79-7,2.44-4.67,3.62-7c2.61-5.4,4.3-8.73,3.38-6.64" transform="translate(-228.05 -21.26)"/><path class="cls-1" d="M384.23,505.52c-.4.87,1.79-3.24,1.38-2.38s-3.42,6.7-3.83,7.57l-1.26,2.59c-.42.87-.84,1.73-1.27,2.6L378,518.5c-.43.87-.87,1.74-1.31,2.61s-.88,1.74-1.33,2.61-.89,1.73-1.35,2.6l-1.37,2.62c-.45.87-.92,1.74-1.38,2.61l-1.41,2.61c-.47.88-.95,1.75-1.43,2.62l-1.44,2.62L365.47,542c-.49.87-1,1.74-1.49,2.61l-1.5,2.62L361,549.87l-1.55,2.62c-.52.88-1,1.75-1.57,2.62l-1.59,2.62-1.61,2.62L353,563c-.54.87-1.1,1.75-1.65,2.62" transform="translate(-228.05 -21.26)"/><path class="cls-1" d="M409.12,441.67c-.27.81-.54,2.5-.81,3.31s-.54,1.63-.82,2.44-.55,1.64-.83,2.45l-.86,2.46c-.28.82-.57,1.65-.86,2.47l-.88,2.47-.9,2.49c-.3.83-.6,1.66-.91,2.49s-.61,1.66-.93,2.49-.62,1.67-.94,2.51l-1,2.51-1,2.52c-.33.84-.66,1.68-1,2.52s-.67,1.69-1,2.53-3.42,7.79-3.76,8.63,2.05-5.06,1.7-4.21" transform="translate(-228.05 -21.26)"/><path class="cls-1" d="M435,327.15c-.23,1.72,2.29-15.41-.7,5.19-.24,1.74-.48,3.49-.74,5.25s-.52,3.53-.8,5.31-.55,3.57-.84,5.36-.6,3.61-.91,5.42-.63,3.64-.95,5.47-2,10.2-2.34,12.05" transform="translate(-228.05 -21.26)"/><path class="cls-1" d="M440.57,235.55c0,1.14,0,2.29,0,3.47s0,2.36,0,3.57,0,2.43,0,3.67,0,2.5,0,3.78,0,2.56-.06,3.86-.06,2.63-.09,4-.08,2.69-.12,4.05-.09,2.75-.15,4.14-.11,2.81-.17,4.23-.14,2.86-.21,4.32-.15,2.92-.24,4.4-.18,3-.27,4.48c-1.47,34.48-.2,3-.31,4.56" transform="translate(-228.05 -21.26)"/><path class="cls-1" d="M352.59,291.63c0-2.38-2.23,23.28.69-5.49.14-1.92.26-3.82.38-5.69s.21-3.73.31-5.55.18-3.63.25-5.4.14-3.52.19-5.24.11-3.41.15-5.07.07-3.3.09-4.91,0-3.19.05-4.73,0-3.07,0-4.56,0-2.94,0-4.36,0-2.82-.06-4.18-.06-2.69-.09-4-.07-2.56-.11-3.78a77,77,0,0,1,.38-14.3,31.84,31.84,0,0,1,2.2-8.53c-.05-1.16,11.25-66.71,1.75-7.37" transform="translate(-228.05 -21.26)"/><path class="cls-1" d="M345.11,350q.64-3.47,1.24-6.87t1.13-6.78c3.58-25.12.71-4.47,1-6.68" transform="translate(-228.05 -21.26)"/><path class="cls-1" d="M296.67,491c1.35-2.53-2.59,4.9,4-7.61q1.94-3.79,3.78-7.61t3.6-7.62c1.17-2.54,2.32-5.08,3.43-7.62s2.21-5.08,3.27-7.61,2.09-5.07,3.1-7.6,2-5.06,2.94-7.59,1.89-5,2.79-7.56,1.78-5,2.64-7.53,1.68-5,2.49-7.51,1.59-5,2.35-7.46,1.49-4.95,2.2-7.42" transform="translate(-228.05 -21.26)"/><path class="cls-1" d="M279,521.19c1.6-2.49,3.17-5,4.71-7.5,6.82-11.36,3-5,4.51-7.55" transform="translate(-228.05 -21.26)"/><path class="cls-1" d="M359.24,455.23c-.52,1.39,3.63-10.16-.32,1-.54,1.38-1.09,2.77-1.64,4.16s-1.11,2.78-1.68,4.17-1.14,2.78-1.73,4.18-1.17,2.78-1.77,4.17-1.2,2.79-1.81,4.19-1.23,2.78-1.86,4.18-1.26,2.79-1.91,4.18-1.29,2.79-1.95,4.18-1.32,2.79-2,4.19-1.36,2.79-2.05,4.18l-2.09,4.18-2.15,4.18q-1.08,2.09-2.19,4.17t-2.25,4.17c-.75,1.39-1.52,2.77-2.29,4.16S328,521.62,327.2,523s-1.59,2.77-2.4,4.15-1.62,2.77-2.45,4.15-1.66,2.76-2.5,4.13-1.7,2.76-2.56,4.13-1.73,2.75-2.61,4.12-1.76,2.74-2.66,4.11" transform="translate(-228.05 -21.26)"/><path class="cls-1" d="M397.11,273.61c.46-7.42.36-4,0,0-.06,1-.11,2-.17,3s-.12,2-.19,3.05-.13,2.05-.2,3.09-.14,2.08-.22,3.13-.15,2.11-.24,3.17-.17,2.14-.26,3.21l-.27,3.25-.3,3.28c-.1,1.1-.21,2.21-.32,3.32s-.22,2.24-.34,3.36l-.36,3.39-.39,3.43c-.13,1.15-.27,2.3-.41,3.46s-.28,2.32-.43,3.49-.3,2.34-.45,3.52l-.48,3.56c-.17,1.19-.33,2.38-.51,3.58s-.35,2.41-.53,3.62-.36,2.42-.55,3.64-.39,2.45-.59,3.68-.4,2.46-.61,3.7-.65,3.66-1.1,6.08-.89,6.2-1.12,7.46" transform="translate(-228.05 -21.26)"/><path class="cls-1" d="M349.16,206.35" transform="translate(-228.05 -21.26)"/><path class="cls-1" d="M354.53,206.63" transform="translate(-228.05 -21.26)"/><path class="cls-2" d="M440.91,191.3c0-22.73-18.66-41.79-40.91-41.79s-40.19,19.06-40.19,41.79,17.94,41.06,40.19,41.06c52.39,0,99.76,25.66,129.9,65.26,23,29.33,35.89,66,35.89,106.31,0,93.86-73.93,168.64-165.79,168.64S234.21,498.52,234.21,401.74h125.6c0,23.46,17.94,41.79,40.19,41.79a41.17,41.17,0,0,0,40.91-41.06c0-22.73-18.66-41.79-40.91-41.79-91.86,0-165.07-74.79-165.07-168.64s71-164.61,162.84-164.61,168,70,168,163.87Z" transform="translate(-228.05 -21.26)"/></svg>